<?xml version="1.0" encoding="UTF-8" standalone="no"?>
<!-- Created with Inkscape (http://www.inkscape.org/) -->

<svg
   width="210mm"
   height="297mm"
   viewBox="0 0 210 297"
   version="1.1"
   id="svg5"
   xml:space="preserve"
   inkscape:version="1.2.1 (9c6d41e4, 2022-07-14)"
   sodipodi:docname="karte01.svg"
   xmlns:inkscape="http://www.inkscape.org/namespaces/inkscape"
   xmlns:sodipodi="http://sodipodi.sourceforge.net/DTD/sodipodi-0.dtd"
   xmlns="http://www.w3.org/2000/svg"
   xmlns:svg="http://www.w3.org/2000/svg"><sodipodi:namedview
     id="namedview7"
     pagecolor="#ffffff"
     bordercolor="#666666"
     borderopacity="1.0"
     inkscape:showpageshadow="2"
     inkscape:pageopacity="0.0"
     inkscape:pagecheckerboard="0"
     inkscape:deskcolor="#d1d1d1"
     inkscape:document-units="mm"
     showgrid="false"
     inkscape:zoom="1.2673971"
     inkscape:cx="188.18095"
     inkscape:cy="371.23329"
     inkscape:window-width="1652"
     inkscape:window-height="1019"
     inkscape:window-x="396"
     inkscape:window-y="25"
     inkscape:window-maximized="0"
     inkscape:current-layer="layer1" /><defs
     id="defs2" /><g
     inkscape:label="Layer 1"
     inkscape:groupmode="layer"
     id="layer1"><circle
       style="fill:#ffffff;fill-opacity:1;stroke:none;stroke-width:0.657514;stroke-linecap:round;stroke-linejoin:round;stroke-dasharray:none;stroke-opacity:1;paint-order:stroke fill markers"
       id="path3848"
       cx="60.537003"
       cy="52.304676"
       r="13.229167"
       inkscape:export-filename="../kart01.png"
       inkscape:export-xdpi="96"
       inkscape:export-ydpi="96" /><g
       id="g3857"
       transform="translate(33.556041,-12.636138)"><path
         class="st0"
         d="M 33.858878,58.979556 C 33.725287,58.663627 33.503048,58.396438 33.223129,58.206902 32.943211,58.017898 32.60235,57.906475 32.23985,57.906475 h -1.513142 v -0.261052 h -2.193232 c 0.01,-0.07095 0.01554,-0.144129 0.01554,-0.217844 -3.6e-5,-0.864672 -0.703397,-1.568046 -1.568054,-1.568046 -0.864658,0 -1.568019,0.703374 -1.568019,1.568046 0,0.07371 0.0055,0.146897 0.01554,0.217844 h -2.193232 v 0.261052 h -1.513177 c -0.241111,0 -0.473886,0.04934 -0.683958,0.13856 -0.316491,0.133594 -0.583639,0.355837 -0.773207,0.635761 -0.189001,0.280455 -0.300422,0.62079 -0.300422,0.983297 v 12.60095 c 0,0.241115 0.04934,0.473361 0.138026,0.683969 0.134124,0.315929 0.356398,0.583118 0.636317,0.772654 0.279918,0.189536 0.620744,0.300427 0.983244,0.300427 h 10.51778 c 0.241111,0 0.473885,-0.04878 0.684525,-0.13856 0.315923,-0.133027 0.583107,-0.355838 0.77264,-0.635761 0.189,-0.279923 0.300421,-0.620791 0.300421,-0.982729 v -12.60095 c 0,-0.241647 -0.04934,-0.473894 -0.138558,-0.684537 z M 26.98096,56.845597 c 0.320925,0 0.581972,0.261051 0.581972,0.581982 0,0.07705 -0.01554,0.150196 -0.04324,0.217844 h -1.078064 c -0.02717,-0.06761 -0.04267,-0.140795 -0.04267,-0.217844 3.6e-5,-0.320931 0.26165,-0.581982 0.582008,-0.581982 z m 5.971119,15.419446 c 0,0.09979 -0.01997,0.191771 -0.05598,0.276589 -0.05321,0.126925 -0.144659,0.23668 -0.258279,0.314261 -0.114188,0.07648 -0.248312,0.120824 -0.397973,0.120824 h -10.51778 c -0.09979,0 -0.192336,-0.01997 -0.277152,-0.05545 -0.126923,-0.05378 -0.236676,-0.14523 -0.313724,-0.258852 -0.07705,-0.11419 -0.121389,-0.248317 -0.121389,-0.397413 V 59.664093 c 0,-0.09979 0.01997,-0.192339 0.05598,-0.277157 0.05378,-0.127492 0.144128,-0.236681 0.25828,-0.31373 0.114188,-0.07648 0.248312,-0.120823 0.397973,-0.121391 h 1.513142 v 0.217845 c 0,0.409047 0.33146,0.740514 0.741069,0.740514 h 6.009359 c 0.409608,0 0.741069,-0.331467 0.741069,-0.740514 v -0.217845 h 1.513141 c 0.09979,0 0.192336,0.01997 0.277152,0.05598 0.126923,0.05378 0.236676,0.14413 0.313724,0.258284 0.07648,0.114722 0.120821,0.248316 0.121389,0.39798 z"
         style="fill:none;stroke:#02c7c6;stroke-width:0.79375;stroke-dasharray:none;stroke-opacity:1"
         id="path134" /><rect
         x="23.191439"
         y="62.000927"
         class="st0"
         width="7.5785131"
         height="0.87077415"
         style="fill:#fc8a8a;fill-opacity:1;stroke:none;stroke-width:0.79375;stroke-dasharray:none;stroke-opacity:1"
         id="rect136" /><rect
         x="23.191439"
         y="64.396507"
         class="st0"
         width="7.5785131"
         height="0.87077415"
         style="fill:#fc8a8a;fill-opacity:1;stroke-width:0.79375;stroke-dasharray:none"
         id="rect138" /><rect
         x="23.191439"
         y="66.792114"
         class="st0"
         width="7.5785131"
         height="0.87077415"
         style="fill:#fc8a8a;fill-opacity:1;stroke-width:0.79375;stroke-dasharray:none"
         id="rect140" /><rect
         x="26.980959"
         y="69.840622"
         class="st0"
         width="3.7889905"
         height="0.87134171"
         style="fill:#fc8a8a;fill-opacity:1;stroke-width:0.79375;stroke-dasharray:none"
         id="rect142" /><rect
         style="fill:none;fill-opacity:1;stroke:none;stroke-width:0.5106;stroke-linecap:round;stroke-linejoin:round;stroke-dasharray:none;stroke-opacity:1;paint-order:stroke fill markers"
         id="rect2923"
         width="21.301466"
         height="21.301466"
         x="16.330229"
         y="54.290081"
         rx="0"
         ry="0" /><rect
         style="fill:none;stroke:none;stroke-width:0.297863;stroke-linecap:round;stroke-linejoin:round;paint-order:stroke fill markers"
         id="rect318"
         width="19.545887"
         height="19.545887"
         x="16.916471"
         y="55.16787"
         rx="0.15740077"
         ry="0.10205948"
         inkscape:export-filename="../karte-0.png"
         inkscape:export-xdpi="96"
         inkscape:export-ydpi="96" /></g></g><style
     type="text/css"
     id="style132">

	.st0{fill:#4B4B4B;}

</style></svg>
