<?xml version="1.0" encoding="UTF-8" standalone="no"?>
<!-- Created with Inkscape (http://www.inkscape.org/) -->

<svg
   width="210mm"
   height="297mm"
   viewBox="0 0 210 297"
   version="1.1"
   id="svg5"
   xml:space="preserve"
   inkscape:version="1.2.1 (9c6d41e4, 2022-07-14)"
   sodipodi:docname="reqult.svg"
   xmlns:inkscape="http://www.inkscape.org/namespaces/inkscape"
   xmlns:sodipodi="http://sodipodi.sourceforge.net/DTD/sodipodi-0.dtd"
   xmlns="http://www.w3.org/2000/svg"
   xmlns:svg="http://www.w3.org/2000/svg"><sodipodi:namedview
     id="namedview7"
     pagecolor="#ffffff"
     bordercolor="#666666"
     borderopacity="1.0"
     inkscape:showpageshadow="2"
     inkscape:pageopacity="0.0"
     inkscape:pagecheckerboard="0"
     inkscape:deskcolor="#d1d1d1"
     inkscape:document-units="mm"
     showgrid="false"
     inkscape:zoom="0.94"
     inkscape:cx="152.12766"
     inkscape:cy="645.21277"
     inkscape:window-width="1699"
     inkscape:window-height="1021"
     inkscape:window-x="574"
     inkscape:window-y="55"
     inkscape:window-maximized="0"
     inkscape:current-layer="layer1" /><defs
     id="defs2">
	
	
	
</defs><g
     inkscape:label="Layer 1"
     inkscape:groupmode="layer"
     id="layer1"><g
       id="g5134"
       transform="translate(7.8121325,-25.619813)"
       style="stroke-width:0.66145833;stroke-dasharray:none"><path
         class="st0"
         d="m 78.512182,126.55145 c -0.564382,0.39491 -1.25017,0.62735 -1.989554,0.62735 -0.739726,0 -1.425553,-0.2324 -1.989897,-0.62735 -0.986772,0.42346 -1.593198,1.16875 -1.963099,1.82671 -0.490966,0.87299 -0.106122,2.10753 0.743195,2.10753 0.848974,0 3.209801,0 3.209801,0 0,0 2.360828,0 3.209802,0 0.849355,0 1.23416,-1.23454 0.742852,-2.10753 -0.36952,-0.65796 -0.975985,-1.40325 -1.9631,-1.82671 z"
         style="fill:#fd8a8a;fill-opacity:0.811765;stroke-width:0.66145833;stroke-dasharray:none"
         id="path134" /><path
         class="st0"
         d="m 76.522628,126.35308 c 1.449873,0 2.624912,-1.17534 2.624912,-2.62487 v -0.62877 c 0,-1.44987 -1.175039,-2.62491 -2.624912,-2.62491 -1.449873,0 -2.624912,1.17504 -2.624912,2.62491 v 0.62877 c 0,1.44953 1.175039,2.62487 2.624912,2.62487 z"
         style="fill:#fd8a8a;fill-opacity:0.811765;stroke-width:0.66145833;stroke-dasharray:none"
         id="path136" /><path
         class="st0"
         d="m 86.613037,133.92718 -2.89075,-2.81627 c 2.4878,-3.46138 2.178125,-8.32671 -0.932149,-11.43694 -3.456161,-3.45651 -9.078935,-3.45651 -12.535058,0 -3.456504,3.45612 -3.456504,9.07962 -3.43e-4,12.53571 3.11096,3.11065 7.976283,3.41998 11.438353,0.93111 l 2.815237,2.89037 c 0.596363,0.71991 1.477013,0.76237 2.15758,0.0815 0.681634,-0.67992 0.666653,-1.58942 -0.05287,-2.18544 z m -15.127608,-2.94846 c -2.781465,-2.78181 -2.781465,-7.29221 0,-10.07337 2.781807,-2.78181 7.291867,-2.78181 10.073712,0 2.781503,2.7815 2.781846,7.29156 3.43e-4,10.07367 -2.781464,2.78112 -7.292248,2.78112 -10.074055,-3e-4 z"
         style="fill:none;stroke:#02c6c6;stroke-width:0.66145833;stroke-dasharray:none;stroke-opacity:0.592157"
         id="path138" /></g><rect
       style="opacity:0.3;fill:none;stroke-width:0.377221;stroke-linecap:round;stroke-linejoin:round;paint-order:stroke fill markers"
       id="rect310"
       width="21.166666"
       height="21.166666"
       x="74.643082"
       y="90.637108"
       inkscape:export-filename="../recruit.png"
       inkscape:export-xdpi="96"
       inkscape:export-ydpi="96" /></g><style
     type="text/css"
     id="style132">
	.st0{fill:#4B4B4B;}
</style></svg>
