<?xml version="1.0" encoding="UTF-8" standalone="no"?>
<!-- Created with Inkscape (http://www.inkscape.org/) -->

<svg
   width="210mm"
   height="297mm"
   viewBox="0 0 210 297"
   version="1.1"
   id="svg4726"
   xml:space="preserve"
   inkscape:version="1.2.1 (9c6d41e4, 2022-07-14)"
   sodipodi:docname="saisinn.svg"
   xmlns:inkscape="http://www.inkscape.org/namespaces/inkscape"
   xmlns:sodipodi="http://sodipodi.sourceforge.net/DTD/sodipodi-0.dtd"
   xmlns="http://www.w3.org/2000/svg"
   xmlns:svg="http://www.w3.org/2000/svg"><sodipodi:namedview
     id="namedview4728"
     pagecolor="#ffffff"
     bordercolor="#666666"
     borderopacity="1.0"
     inkscape:showpageshadow="2"
     inkscape:pageopacity="0.0"
     inkscape:pagecheckerboard="0"
     inkscape:deskcolor="#d1d1d1"
     inkscape:document-units="mm"
     showgrid="false"
     inkscape:zoom="4.1289449"
     inkscape:cx="8.5978382"
     inkscape:cy="389.56684"
     inkscape:window-width="1652"
     inkscape:window-height="1019"
     inkscape:window-x="282"
     inkscape:window-y="25"
     inkscape:window-maximized="0"
     inkscape:current-layer="layer1" /><defs
     id="defs4723">
	
	
	
	
</defs><g
     inkscape:label="Layer 1"
     inkscape:groupmode="layer"
     id="layer1"><g
       id="g5161"
       transform="translate(0.00348144,0.25305694)"><path
         id="path134"
         style="fill:#02c7c6;fill-opacity:1;stroke-width:0.0372811"
         class="st0"
         d="m 20.991993,84.879254 c -0.359592,0.08579 -0.734389,0.129471 -1.113793,0.129471 -0.339,0 -0.673307,-0.0399 -1.002645,-0.104041 -0.03711,-0.0079 -0.07598,-0.01053 -0.112688,-0.01926 v 7.49e-4 c -0.0019,-3.75e-4 -0.0042,-3.33e-4 -0.0062,-7.49e-4 l 0.115011,1.612252 0.558821,-0.0062 0.0046,2.432246 c 0.05022,1.474156 1.245104,2.628772 2.720805,2.628772 1.144077,0 2.14649,-0.709427 2.538644,-1.755594 -0.171224,-0.03148 -0.349135,-0.08696 -0.389789,-0.09711 -0.147987,-0.0602 -0.301558,-0.122182 -0.454627,-0.189582 -0.275621,0.683506 -0.948599,1.147532 -1.693456,1.147532 -1.009077,0 -1.830075,-0.819008 -1.830075,-1.826503 l -0.0062,-2.319727 v -0.0139 l 0.570409,-0.0054 0.07719,-1.229224 0.02545,-0.377631 c -7.5e-4,0 -7.5e-4,-1.46e-4 -0.0015,0 z m 2.48308,0.701313 c -0.0063,0.01169 -0.01057,0.01979 -0.01619,0.0301 0.0019,-0.0011 0.0041,-0.0026 0.0062,-0.004 h 7.49e-4 c 0.003,-0.0088 0.0056,-0.01672 0.0093,-0.0262 z m -0.03624,0.549492 c 1.31e-4,7.5e-4 -1.35e-4,7.5e-4 0,0.0015 3.74e-4,0.0022 0.0011,0.0045 0.0015,0.0069 0.01248,0.0074 0.02526,0.01469 0.03784,0.02001 -3.34e-4,-3.74e-4 -3.64e-4,-0.0011 -7.5e-4,-0.0015 -0.0095,-0.01263 -0.02384,-0.0199 -0.03861,-0.02698 z" /><path
         class="st0"
         d="m 17.131807,78.239298 -0.0066,-3.240665 c 0.665497,-0.10237 1.148394,-0.522945 1.148394,-1.000228 4.5e-5,-0.564855 -0.65631,-1.024403 -1.463216,-1.024403 -0.806913,0 -1.463263,0.459548 -1.463263,1.024365 l 0.0086,4.240931 z"
         style="fill:none;fill-opacity:1;stroke:#02c7c6;stroke-width:0.79375;stroke-dasharray:none;stroke-opacity:1"
         id="path136" /><path
         class="st0"
         d="m 22.441753,74.992793 0.0086,3.226584 v 0.01379 0 0.0061 h 1.776367 v -4.240972 c 0,-0.564818 -0.656386,-1.024362 -1.463157,-1.024362 -0.806931,0 -1.463324,0.459544 -1.463324,1.024362 -3.8e-5,0.477324 0.48292,0.897862 1.141606,0.99446 z"
         style="fill:none;fill-opacity:1;stroke:#02c7c6;stroke-width:0.79375;stroke-dasharray:none;stroke-opacity:1"
         id="path138" /><path
         class="st0"
         d="m 20.962301,85.277176 c 1.925781,-0.518444 3.270871,-2.270238 3.270871,-4.260264 l -0.006,-1.63896 -1.771093,0.0061 -0.01177,1.853013 c -0.113459,1.353905 -1.268758,2.414667 -2.630009,2.414667 -1.223981,0 -2.27869,-0.858598 -2.568396,-2.01547 -0.03145,-0.129861 -0.05593,-0.262185 -0.06746,-0.398601 h -0.0026 v -1.5e-4 l -0.0026,-0.220608 -0.006,-1.628901 v -0.0039 0 -0.0061 l -1.771092,0.0061 v 1.632847 c 0,1.990025 1.345089,3.741823 3.27087,4.260263 0.373137,0.100661 0.759407,0.151693 1.147873,0.151693 0.388545,0 -0.314551,0.205241 0.05862,0.104628 z"
         style="fill:none;fill-opacity:1;stroke:#02c7c6;stroke-width:0.79375;stroke-dasharray:none;stroke-opacity:1"
         id="path140"
         sodipodi:nodetypes="cccccsccccccccccscscc" /><path
         style="fill:none;fill-opacity:1;stroke:#fc8a8a;stroke-width:1.36225;stroke-linecap:round;stroke-linejoin:round;stroke-dasharray:none;stroke-opacity:1;paint-order:stroke fill markers"
         id="path2814"
         sodipodi:type="arc"
         sodipodi:cx="25.293293"
         sodipodi:cy="88.423988"
         sodipodi:rx="1.5137857"
         sodipodi:ry="1.5114611"
         sodipodi:start="0"
         sodipodi:end="6.0605244"
         sodipodi:open="true"
         sodipodi:arc-type="arc"
         d="m 26.807079,88.423988 a 1.5137857,1.5114611 0 0 1 -1.429564,1.50912 1.5137857,1.5114611 0 0 1 -1.588636,-1.341195 1.5137857,1.5114611 0 0 1 1.252792,-1.658359 1.5137857,1.5114611 0 0 1 1.728037,1.156665" /></g><rect
       style="fill:none;fill-opacity:1;stroke:none;stroke-width:0.377598;stroke-linecap:round;stroke-linejoin:round;stroke-dasharray:none;stroke-opacity:1;paint-order:stroke fill markers"
       id="rect4755"
       width="19.84375"
       height="19.84375"
       x="11.300832"
       y="72.395958"
       rx="0.40373453"
       ry="0.27813789"
       inkscape:export-filename="saisin0.png"
       inkscape:export-xdpi="96"
       inkscape:export-ydpi="96" /></g><style
     type="text/css"
     id="style132">
	.st0{fill:#4B4B4B;}
</style></svg>
