<?xml version="1.0" encoding="UTF-8" standalone="no"?>
<!-- Created with Inkscape (http://www.inkscape.org/) -->

<svg
   width="210mm"
   height="297mm"
   viewBox="0 0 210 297"
   version="1.1"
   id="svg5"
   xml:space="preserve"
   inkscape:version="1.2.1 (9c6d41e4, 2022-07-14)"
   sodipodi:docname="sp-navi-icon1.svg"
   xmlns:inkscape="http://www.inkscape.org/namespaces/inkscape"
   xmlns:sodipodi="http://sodipodi.sourceforge.net/DTD/sodipodi-0.dtd"
   xmlns="http://www.w3.org/2000/svg"
   xmlns:svg="http://www.w3.org/2000/svg"><sodipodi:namedview
     id="namedview7"
     pagecolor="#ffffff"
     bordercolor="#666666"
     borderopacity="1.0"
     inkscape:showpageshadow="2"
     inkscape:pageopacity="0.0"
     inkscape:pagecheckerboard="0"
     inkscape:deskcolor="#d1d1d1"
     inkscape:document-units="mm"
     showgrid="false"
     inkscape:zoom="0.76798024"
     inkscape:cx="80.080185"
     inkscape:cy="482.43428"
     inkscape:window-width="1652"
     inkscape:window-height="1021"
     inkscape:window-x="340"
     inkscape:window-y="25"
     inkscape:window-maximized="0"
     inkscape:current-layer="layer1" /><defs
     id="defs2" /><g
     inkscape:label="Layer 1"
     inkscape:groupmode="layer"
     id="layer1"><g
       style="opacity:1;fill:#2a7edf;fill-opacity:1"
       id="g155"
       transform="matrix(0.26458333,0,0,0.26458333,25.697349,19.217786)"><g
         id="g142"
         style="fill:#2a7edf;fill-opacity:1">
	<path
   class="st0"
   d="m 110.547,411.844 c -5.234,5.813 -9.141,12.5 -11.328,19.266 -1.531,4.766 -2.266,9.469 -2.266,13.875 0,2.688 0.266,5.25 0.844,7.672 0.438,1.797 1.031,3.516 1.828,5.094 0.594,1.203 1.313,2.344 2.156,3.375 1.266,1.531 2.828,2.859 4.688,3.781 1.844,0.938 3.969,1.438 6.125,1.422 v -9.766 c -0.453,0 -0.797,-0.063 -1.125,-0.156 -0.578,-0.156 -1.047,-0.422 -1.578,-0.891 -0.375,-0.359 -0.781,-0.828 -1.156,-1.469 -0.563,-0.922 -1.094,-2.203 -1.453,-3.734 -0.359,-1.547 -0.563,-3.344 -0.563,-5.328 0,-3.297 0.578,-7.047 1.797,-10.891 1.141,-3.531 2.953,-7.188 5.328,-10.656 3.547,-5.219 8.391,-9.984 13.984,-13.391 2.781,-1.703 5.781,-3.078 8.891,-4.016 3.125,-0.938 6.391,-1.438 9.766,-1.438 4.5,0 8.813,0.906 12.844,2.531 6.031,2.406 11.484,6.453 15.844,11.281 4.344,4.813 7.578,10.406 9.266,15.688 1.234,3.844 1.813,7.594 1.813,10.891 0,2.016 -0.219,3.844 -0.594,5.391 -0.266,1.156 -0.641,2.188 -1.047,3 -0.313,0.625 -0.641,1.125 -0.984,1.547 -0.5,0.609 -1,1 -1.484,1.25 -0.5,0.234 -1.016,0.375 -1.766,0.391 v 9.766 c 1.281,0.016 2.547,-0.172 3.75,-0.5 2.109,-0.578 4,-1.672 5.547,-3.094 1.156,-1.063 2.125,-2.281 2.922,-3.609 1.219,-2 2.063,-4.219 2.609,-6.594 0.546,-2.375 0.813,-4.906 0.813,-7.547 0,-4.406 -0.734,-9.125 -2.266,-13.875 -1.453,-4.516 -3.672,-8.984 -6.547,-13.188 -4.313,-6.297 -10.063,-12.016 -16.969,-16.234 -3.453,-2.094 -7.188,-3.813 -11.172,-5 -3.984,-1.219 -8.203,-1.875 -12.578,-1.875 -5.828,0 -11.391,1.188 -16.469,3.234 -7.642,3.062 -14.236,8 -19.47,13.797 z"
   style="fill:#2a7edf;fill-opacity:1"
   id="path134" />
	<path
   class="st0"
   d="m 165.594,452.109 c -1.594,1.266 -2.531,3.172 -2.531,5.219 v 7.891 c 0,2.031 0.938,3.953 2.531,5.219 1.594,1.25 3.688,1.719 5.656,1.25 l 5.266,-1.25 v -18.344 l -5.266,-1.25 c -1.969,-0.469 -4.062,0 -5.656,1.265 z"
   style="fill:#2a7edf;fill-opacity:1"
   id="path136" />
	<path
   class="st0"
   d="m 121.719,450.844 -5.281,1.25 v 18.344 l 5.281,1.25 c 1.969,0.469 4.063,0 5.656,-1.25 1.594,-1.266 2.531,-3.188 2.531,-5.219 v -7.891 c 0,-2.047 -0.938,-3.953 -2.531,-5.219 -1.593,-1.266 -3.687,-1.734 -5.656,-1.265 z"
   style="fill:#2a7edf;fill-opacity:1"
   id="path138" />
	<path
   class="st0"
   d="m 453.453,429.594 c -2.016,-7.531 -4.859,-14.281 -8.359,-20.281 -6.141,-10.547 -14.266,-18.75 -23.234,-25.25 -6.734,-4.875 -13.922,-8.859 -21.234,-12.281 -10.953,-5.125 -22.156,-9.063 -32.5,-12.891 -10.344,-3.813 -19.797,-7.547 -27.156,-11.891 -2.688,-1.594 -5.109,-3.25 -7.203,-4.984 -3.125,-2.609 -5.563,-5.391 -7.328,-8.5 -1.765,-3.109 -2.953,-6.609 -3.406,-10.984 -0.328,-3.125 -0.469,-6.063 -0.469,-8.875 0,-8.281 1.219,-15.453 2.781,-22.781 4.625,-5.219 8.859,-11.438 12.859,-18.875 4.016,-7.484 7.828,-16.219 11.625,-26.563 2.438,-1.109 4.891,-2.438 7.281,-4.063 5.469,-3.656 10.656,-8.781 14.984,-15.609 4.313,-6.828 7.781,-15.313 10.156,-25.781 0.656,-2.906 0.969,-5.797 0.969,-8.641 0.016,-5.938 -1.391,-11.594 -3.75,-16.656 -1.641,-3.516 -3.719,-6.734 -6.141,-9.656 1.234,-4.563 2.734,-10.703 4.078,-17.891 1.844,-9.984 3.375,-21.984 3.375,-34.594 0,-8.141 -0.641,-16.547 -2.297,-24.844 C 377.25,81.484 375.421,75.312 372.859,69.406 369,60.515 363.39,52.156 355.593,45.25 348.374,38.859 339.327,33.766 328.405,30.5 c -3.859,-4.625 -7.734,-8.563 -11.703,-11.906 -3.438,-2.875 -6.953,-5.297 -10.547,-7.281 -5.406,-3 -11,-4.984 -16.734,-6.188 -5.734,-1.204 -11.578,-1.641 -17.641,-1.641 -8.359,0 -17.156,0.828 -26.875,1.781 -3.672,0.375 -6.75,0.828 -9.422,1.297 -3.984,0.719 -6.969,1.453 -9.359,1.938 -1.203,0.234 -2.25,0.422 -3.281,0.547 -1.031,0.109 -2.031,0.188 -3.172,0.188 -1.531,0 -3.297,-0.125 -5.609,-0.453 C 206.984,7.751 200.515,6.157 195.437,4.594 192.906,3.828 190.718,3.063 188.999,2.406 188.14,2.078 187.39,1.781 186.796,1.531 186.187,1.281 185.733,1.047 185.468,0.922 l 0.016,0.016 C 184.703,0.532 183.953,0.313 183.281,0.188 182.609,0.031 182.016,0 181.5,0 c -1.078,0 -1.844,0.156 -2.453,0.313 -0.609,0.157 -1.078,0.344 -1.5,0.516 -0.813,0.328 -1.438,0.672 -2.063,1.047 -1.141,0.688 -2.234,1.453 -3.391,2.344 -2.016,1.563 -4.234,3.5 -6.594,5.781 -3.531,3.406 -7.313,7.531 -10.75,12.031 -1.719,2.234 -3.328,4.578 -4.781,7 -1.453,2.422 -2.734,4.906 -3.75,7.516 -4.969,12.922 -8.25,24.828 -10.281,35.813 -2.047,10.984 -2.828,21.047 -2.828,30.281 0,15.109 2.109,27.922 4.141,38.75 0,0.516 0.016,1 0.047,1.516 0.063,1.016 0.172,2.063 0.281,3.156 0.172,1.625 0.359,3.297 0.5,4.703 0.078,0.703 0.141,1.328 0.188,1.813 0.016,0.234 0.031,0.453 0.031,0.609 l 0.016,0.156 v 0.047 0.016 0.922 l 1.984,8.828 c -2.859,3.125 -5.328,6.625 -7.25,10.469 -2.688,5.344 -4.281,11.375 -4.281,17.75 0,2.813 0.328,5.719 0.984,8.609 1.563,6.984 3.641,13.078 6.125,18.391 3.719,7.984 8.438,14.188 13.656,18.844 4.047,3.625 8.375,6.266 12.656,8.219 3.781,10.344 7.594,19.063 11.609,26.547 4,7.453 8.219,13.656 12.844,18.875 1.563,7.328 2.781,14.516 2.797,22.797 0,2.813 -0.156,5.75 -0.484,8.875 -0.313,3 -0.969,5.594 -1.922,7.938 -1.422,3.5 -3.5,6.484 -6.328,9.313 -2.828,2.781 -6.438,5.391 -10.703,7.813 -4.328,2.453 -9.344,4.75 -14.797,6.938 -9.563,3.875 -20.469,7.531 -31.516,11.953 -8.281,3.297 -16.672,7.063 -24.672,11.766 -6,3.531 -11.766,7.625 -17.078,12.484 -7.953,7.281 -14.813,16.359 -19.547,27.578 -4.75,11.234 -7.391,24.531 -7.375,40.25 0,2.219 0.469,4.328 1.234,6.281 0.703,1.828 1.688,3.5 2.844,5.094 2.188,2.969 5,5.625 8.453,8.188 6.063,4.469 14.109,8.656 24.531,12.594 15.625,5.891 36.563,11.188 63.641,15.031 27.063,3.844 60.266,6.25 100.266,6.25 34.703,0 64.266,-1.797 89.156,-4.781 18.656,-2.25 34.703,-5.156 48.313,-8.484 10.219,-2.484 19.078,-5.219 26.672,-8.094 5.688,-2.156 10.688,-4.406 15.031,-6.719 3.25,-1.734 6.125,-3.516 8.672,-5.344 3.813,-2.766 6.875,-5.609 9.203,-8.844 1.172,-1.609 2.125,-3.328 2.828,-5.203 0.703,-1.844 1.125,-3.875 1.125,-5.969 0,-10.754 -1.234,-20.364 -3.531,-28.973 z m -126.187,-71.5 -50.156,78.328 -5.594,-38.453 14.234,-15.063 -9.219,-15.375 38.906,-20.453 c 1.078,1.391 2.219,2.703 3.422,3.953 2.579,2.641 5.407,4.969 8.407,7.063 z M 183.078,87.156 c 45.219,10.031 133.641,-9.141 133.641,-9.141 0,0 0.953,21.922 16.031,42.047 5.938,7.906 10.828,20.266 14.5,32.016 -0.984,-1.828 -3.297,-2.516 -6.75,-2.953 -7.75,-1.047 -19.266,-1.719 -32.234,-1.094 -38.531,1.891 -35.672,5.391 -50.797,5.391 -15.125,0 -12.266,-3.5 -50.797,-5.391 -12.969,-0.625 -24.484,0.047 -32.25,1.094 -4.031,0.531 -6.563,1.344 -7.141,4.031 -0.203,1 -0.516,2.125 -1.906,2.672 4.266,-15.937 16.141,-36.297 17.703,-68.672 z m 156.844,89.313 c 0,0.219 -0.156,22.313 -15.188,29.859 -5.109,2.578 -11.516,4 -18.031,4.016 -6.875,0 -13.156,-1.563 -18.172,-4.516 -5.547,-3.25 -9.281,-8.078 -11.109,-14.313 -0.438,-1.453 -0.828,-2.906 -1.234,-4.313 -1.188,-4.297 -4.391,-16.234 2.406,-21.484 4.375,-3.422 17.953,-5.578 30.969,-5.578 11.828,0 23.891,1.609 27.422,5.297 2.328,2.438 3.234,6.782 2.937,11.032 z M 238.75,187.203 c -0.406,1.406 -0.813,2.859 -1.234,4.313 -1.828,6.234 -5.563,11.063 -11.094,14.313 -5.031,2.953 -11.313,4.516 -18.188,4.516 -6.516,-0.016 -12.906,-1.438 -18.031,-4.016 -15.031,-7.547 -15.172,-29.641 -15.188,-29.859 -0.297,-4.25 0.609,-8.594 2.922,-11.031 3.547,-3.688 15.609,-5.297 27.438,-5.297 13,0 26.594,2.156 30.984,5.578 6.782,5.249 3.579,17.186 2.391,21.483 z m -50.203,76.86 c -3.922,-7.313 -7.828,-16.406 -11.844,-27.75 l -1.328,-3.703 -3.688,-1.359 c -2.563,-0.938 -5.063,-2.156 -7.453,-3.766 -3.609,-2.422 -7.031,-5.734 -10.172,-10.672 -3.141,-4.938 -5.953,-11.563 -7.984,-20.516 -0.391,-1.703 -0.547,-3.328 -0.547,-4.922 0,-3.594 0.859,-7 2.5,-10.25 1.344,-2.703 3.219,-5.25 5.5,-7.563 3.844,5.813 7.031,10.422 8.188,11.578 2.203,2.203 3.297,0.078 3.469,-4.047 1.359,9.172 5.719,24.313 19.797,31.797 20.266,10.766 50.516,6.734 60.781,-17.234 4.641,-10.813 4.703,-21.375 11.703,-21.375 6.984,0 7.063,10.563 11.703,21.375 10.281,23.969 40.531,28 60.797,17.234 20.25,-10.766 20.391,-37.422 20.391,-39.297 0,-0.969 0.922,-1.703 2.234,-1.844 1.719,7.234 2.609,12.141 2.609,12.141 0,0 1.938,-3.703 4.844,-8.641 1.734,2.031 3.172,4.219 4.234,6.5 1.422,3.063 2.188,6.266 2.188,9.594 0,1.609 -0.172,3.25 -0.563,4.938 -1.344,5.969 -3.047,10.906 -4.953,15 -2.875,6.125 -6.188,10.344 -9.656,13.438 -3.453,3.094 -7.141,5.109 -10.969,6.531 l -3.703,1.344 -1.313,3.719 c -4.016,11.344 -7.938,20.453 -11.859,27.75 -3.938,7.313 -7.844,12.813 -11.906,17.094 l -1.609,1.703 -0.5,2.266 c -1.813,8.359 -3.625,17.594 -3.625,28.531 0,3.375 0.172,6.891 0.547,10.594 0.453,4.344 1.453,8.422 2.938,12.172 0.063,0.172 0.156,0.359 0.219,0.516 l -50.891,26.766 -56.406,-26.172 c 1.734,-4.063 2.906,-8.5 3.406,-13.281 0.391,-3.703 0.547,-7.219 0.547,-10.594 0.016,-10.938 -1.797,-20.188 -3.625,-28.547 l -0.5,-2.266 -1.609,-1.688 c -4.048,-4.313 -7.97,-9.782 -11.892,-17.094 z m -0.453,91.531 c 2.938,-2.359 5.641,-5 8.031,-7.969 l 43.016,19.969 -9.188,15.313 14.219,15.063 -5.25,36.203 -54.875,-75.609 c 1.391,-0.955 2.75,-1.939 4.047,-2.97 z M 440.219,458.5 c -0.016,0.094 -0.125,0.406 -0.422,0.906 -0.563,0.969 -1.875,2.531 -4.094,4.313 -1.922,1.547 -4.516,3.281 -7.781,5.063 -5.734,3.141 -13.5,6.406 -23.344,9.5 -14.781,4.656 -34.297,8.906 -58.922,12 -24.625,3.063 -54.359,4.969 -89.672,4.969 -34.094,0 -63,-1.781 -87.125,-4.672 -18.094,-2.172 -33.5,-4.984 -46.344,-8.109 -9.656,-2.359 -17.875,-4.906 -24.703,-7.5 -5.141,-1.938 -9.5,-3.906 -13.078,-5.828 -2.688,-1.438 -4.953,-2.859 -6.797,-4.172 -2.75,-1.969 -4.5,-3.766 -5.375,-5 -0.438,-0.594 -0.656,-1.063 -0.734,-1.281 -0.047,-0.094 -0.063,-0.156 -0.063,-0.188 0,-9.375 1.063,-17.406 2.906,-24.375 1.609,-6.094 3.828,-11.391 6.531,-16.078 4.719,-8.203 10.922,-14.641 18.297,-20.063 5.5,-4.078 11.672,-7.563 18.203,-10.672 7.328,-3.484 15.109,-6.484 22.922,-9.375 v 16.875 h 5.859 5.859 V 373.61 c 7.469,-2.797 14.75,-5.672 21.531,-9.109 l 86.703,119.453 75.75,-118.266 c 0.234,0.359 0.469,0.719 0.688,1.063 3.156,5.078 5.359,10.609 6.828,16.875 1.453,6.25 2.125,13.25 2.125,21.047 0,18.063 0,33.797 0,44.391 H 318.75 v 11.734 h 67 v -11.734 h -27.219 c 0,-10.594 0,-26.328 0,-44.391 0,-11.359 -1.297,-21.703 -4.516,-31.141 -0.281,-0.813 -0.578,-1.625 -0.891,-2.422 9.156,3.609 18.734,6.859 28.016,10.547 7.953,3.141 15.672,6.578 22.688,10.656 5.281,3.063 10.172,6.5 14.516,10.406 6.516,5.922 11.859,12.906 15.703,21.859 3.828,8.938 6.172,19.938 6.172,33.922 z"
   style="fill:#2a7edf;fill-opacity:1"
   id="path140" />
</g></g><rect
       style="opacity:1;fill:#2a7edf;fill-opacity:1;stroke-width:0.139029;stroke-linecap:round;stroke-linejoin:round;paint-order:stroke fill markers"
       id="rect1758"
       width="26.458334"
       height="26.458334"
       x="12.616532"
       y="20.459242" /></g><style
     type="text/css"
     id="style132">

	.st0{fill:#4B4B4B;}

</style></svg>
