<?xml version="1.0" encoding="UTF-8" standalone="no"?>
<!-- Created with Inkscape (http://www.inkscape.org/) -->

<svg
   width="210mm"
   height="297mm"
   viewBox="0 0 210 297"
   version="1.1"
   id="svg5"
   xml:space="preserve"
   inkscape:version="1.2.1 (9c6d41e4, 2022-07-14)"
   sodipodi:docname="sp-navi-icon2.svg"
   xmlns:inkscape="http://www.inkscape.org/namespaces/inkscape"
   xmlns:sodipodi="http://sodipodi.sourceforge.net/DTD/sodipodi-0.dtd"
   xmlns="http://www.w3.org/2000/svg"
   xmlns:svg="http://www.w3.org/2000/svg"><sodipodi:namedview
     id="namedview7"
     pagecolor="#ffffff"
     bordercolor="#666666"
     borderopacity="1.0"
     inkscape:showpageshadow="2"
     inkscape:pageopacity="0.0"
     inkscape:pagecheckerboard="0"
     inkscape:deskcolor="#d1d1d1"
     inkscape:document-units="mm"
     showgrid="false"
     inkscape:zoom="2.2908875"
     inkscape:cx="326.72927"
     inkscape:cy="282.20504"
     inkscape:window-width="1652"
     inkscape:window-height="1021"
     inkscape:window-x="0"
     inkscape:window-y="25"
     inkscape:window-maximized="0"
     inkscape:current-layer="layer1" /><defs
     id="defs2" /><g
     inkscape:label="Layer 1"
     inkscape:groupmode="layer"
     id="layer1"><g
       id="g140"
       style="fill:#2a7edf;fill-opacity:1;stroke:none;stroke-opacity:1"
       transform="matrix(0.04806052,0,0,0.04806052,65.895727,50.488581)">
	<path
   class="st0"
   d="m 440.407,435.042 c -1.876,-7.034 -4.532,-13.332 -7.801,-18.949 -5.725,-9.838 -13.333,-17.5 -21.7,-23.573 -6.29,-4.563 -13.014,-8.274 -19.832,-11.473 -6.941,-3.254 -13.991,-5.981 -20.816,-8.522 -2.247,-3.176 -4.888,-6.561 -7.46,-10.427 -1.131,-1.689 -2.247,-3.456 -3.3,-5.369 -4.106,-7.452 -7.352,-16.857 -7.182,-30.228 0.194,-15.888 1.448,-14.526 1.681,-60.518 3.781,-3.114 7.344,-7.058 10.427,-11.922 4.036,-6.376 7.274,-14.293 9.483,-24.078 0.62,-2.704 0.914,-5.415 0.914,-8.057 0,-5.554 -1.302,-10.846 -3.51,-15.587 -1.518,-3.253 -3.479,-6.259 -5.732,-9.001 1.154,-4.261 2.556,-9.994 3.796,-16.718 1.727,-9.32 3.16,-11.914 3.16,-23.69 0,-7.608 -0.597,-15.448 -2.146,-23.194 -1.154,-5.818 -2.851,-11.574 -5.252,-17.106 -1.828,-4.214 -4.075,-8.281 -6.786,-12.116 l 26.246,-39.625 c 1.658,-2.503 2.471,-5.392 2.471,-8.204 0,-2.254 -0.511,-4.478 -1.494,-6.523 -0.775,-1.572 -1.852,-3.045 -3.184,-4.3 -1.046,-1.433 -3.052,-3.85 -6.468,-6.972 C 370.979,34.405 363.085,28.471 350.838,21.94 340.116,16.23 326.946,10.738 311.174,6.686 295.409,2.626 277.056,0 256.031,0 c -22.636,0 -42.166,3.037 -58.714,7.638 -16.555,4.594 -30.104,10.745 -40.826,16.927 -10.636,6.135 -17.384,11.41 -21.598,15.354 -2.828,2.65 -4.517,4.702 -5.454,5.996 -1.294,1.255 -2.332,2.718 -3.075,4.276 -0.953,2.007 -1.434,4.184 -1.434,6.392 -0.008,2.812 0.814,5.701 2.471,8.204 l 29.508,44.544 c -3.851,6.725 -7.151,14.216 -9.545,22.513 -2.618,9.11 -4.144,19.182 -4.144,30.197 0,6.864 0.596,5.493 1.874,13.085 l 0.054,1.542 c 0.063,0.952 0.148,1.936 0.256,2.959 0.155,1.518 0.341,3.076 0.48,4.385 0.062,0.658 0.124,1.247 0.155,1.704 l 0.047,0.543 0.008,0.17 v 0.031 0.015 0.868 l 1.852,8.25 c -2.666,2.921 -4.981,6.182 -6.779,9.784 -2.495,4.982 -3.989,10.613 -3.982,16.548 -0.007,2.65 0.295,5.353 0.907,8.057 h -0.008 c 1.48,6.53 3.409,12.216 5.733,17.19 3.478,7.437 7.871,13.239 12.759,17.6 l 1.387,1.162 c 0.232,46.04 1.487,44.677 1.681,60.565 0.163,13.371 -3.084,22.776 -7.19,30.228 -0.891,1.635 -1.828,3.161 -2.78,4.625 -2.735,4.199 -5.594,7.794 -7.988,11.187 -3.052,1.139 -6.143,2.308 -9.25,3.548 -7.739,3.099 -15.579,6.6 -23.039,11.001 -5.6,3.308 -10.992,7.127 -15.944,11.651 -7.437,6.81 -13.836,15.277 -18.267,25.766 -4.439,10.489 -6.894,22.916 -6.894,37.595 0,2.053 0.434,4.036 1.146,5.857 0.674,1.712 1.58,3.285 2.664,4.765 2.038,2.773 4.672,5.252 7.902,7.646 5.648,4.175 13.178,8.08 22.916,11.76 14.588,5.5 34.148,10.443 59.426,14.037 25.287,3.595 56.282,5.835 93.654,5.835 32.398,0 60,-1.681 83.248,-4.47 17.431,-2.099 32.414,-4.804 45.134,-7.91 9.536,-2.332 17.802,-4.88 24.898,-7.576 5.322,-2.007 9.978,-4.106 14.038,-6.268 3.036,-1.627 5.732,-3.285 8.103,-4.989 3.564,-2.572 6.43,-5.244 8.598,-8.25 1.085,-1.511 1.983,-3.114 2.634,-4.857 0.658,-1.736 1.054,-3.633 1.054,-5.578 0,-10.048 -1.146,-19.018 -3.3,-27.06 z M 141.888,56.916 l 0.109,-0.086 0.697,-1.208 c 0.202,-0.286 1.456,-2.014 4.687,-4.849 3.339,-2.936 8.792,-7.058 17.322,-11.977 9.614,-5.547 21.869,-11.132 37.006,-15.331 15.138,-4.207 33.149,-7.034 54.322,-7.034 19.67,0 36.612,2.44 51.052,6.151 14.44,3.718 26.378,8.715 36.023,13.852 11.203,5.972 17.934,11.14 21.761,14.618 1.906,1.736 3.092,3.053 3.75,3.843 l 0.596,0.782 0.031,0.039 0.744,1.247 0.1,0.078 -36.836,55.608 H 256.031 178.81 Z m 11.465,169.618 c -0.364,-1.588 -0.527,-3.114 -0.527,-4.609 0,-3.324 0.814,-6.507 2.332,-9.552 1.262,-2.526 3.021,-4.919 5.152,-7.073 3.586,5.43 6.561,9.738 7.638,10.822 3.525,3.518 4.028,-4.772 2.354,-14.084 -3.09,-17.136 5.23,-0.782 26.348,-41.849 33.994,7.554 88.423,-20.04 108.387,-31.111 h 8.165 c 1.069,7.034 4.377,21.389 14.479,34.861 13.356,17.802 20.963,51.006 20.963,51.006 0,0 1.821,-3.456 4.524,-8.072 1.635,1.906 2.967,3.958 3.958,6.074 1.333,2.867 2.045,5.849 2.045,8.979 0,1.488 -0.163,3.021 -0.527,4.609 -1.255,5.57 -2.843,10.172 -4.633,13.991 -2.68,5.725 -5.771,9.668 -9.002,12.573 -3.238,2.881 -6.678,4.757 -10.257,6.082 l -3.455,1.262 -1.224,3.464 c -3.758,10.605 -7.414,19.104 -11.078,25.928 -3.672,6.832 -7.328,11.954 -11.117,15.966 l -1.503,1.573 -0.465,2.13 c -1.713,7.801 -3.386,10.954 -3.386,21.165 0,3.146 0.155,2.533 0.512,5.981 0.426,4.067 1.348,7.863 2.742,11.372 l 0.202,0.488 -15.633,8.219 -31.902,16.764 -36.14,-16.764 -16.524,-7.661 c 1.619,-3.788 2.72,-7.948 3.176,-12.418 0.356,-3.448 0.519,-2.828 0.519,-5.973 0,-10.226 -1.689,-13.387 -3.401,-21.188 l -0.465,-2.131 -1.488,-1.58 c -3.796,-3.997 -7.452,-9.126 -11.117,-15.958 -3.664,-6.818 -7.313,-15.316 -11.07,-25.906 l -1.224,-3.47 -3.455,-1.262 c -2.394,-0.876 -4.718,-2.007 -6.957,-3.51 -3.362,-2.27 -6.569,-5.361 -9.505,-9.978 -2.917,-4.619 -5.55,-10.793 -7.441,-19.16 z m 105.242,164.506 24.093,44.173 -22.69,32.878 -25.58,-32.692 z m -31.522,34.962 -42.67,-54.531 c 2.874,-1.673 5.624,-3.509 8.18,-5.554 2.742,-2.192 5.276,-4.664 7.507,-7.429 l 50.905,23.628 z m 38.998,-44.142 45.443,-23.876 c 0.999,1.286 2.069,2.518 3.199,3.68 3.602,3.703 7.77,6.763 12.225,9.436 l -37.286,54.018 z m 161.096,81.373 c -1.068,1.48 -2.718,3.014 -5.02,4.672 -1.774,1.286 -3.896,2.588 -6.298,3.874 -3.54,1.89 -7.638,3.718 -12.202,5.438 -6.678,2.541 -14.433,4.888 -23.031,6.988 -12.69,3.099 -27.246,5.648 -43.26,7.569 -24.132,2.897 -51.501,4.362 -81.357,4.362 -34.148,0 -64.904,-1.906 -91.421,-5.678 -22.506,-3.2 -41.369,-7.631 -56.057,-13.17 -8.127,-3.068 -14.549,-6.33 -19.081,-9.668 -2.061,-1.534 -3.548,-2.936 -4.54,-4.268 l -0.743,-1.255 c 0,-11.985 1.89,-22.544 5.64,-31.414 3.238,-7.67 8.072,-14.471 14.363,-20.227 3.827,-3.502 8.18,-6.678 13.309,-9.7 5.686,-3.362 12.309,-6.515 20.862,-9.931 2.998,-1.201 5.973,-2.324 8.916,-3.425 l 4.571,-1.704 22.45,-7.778 85.728,109.208 77.454,-109.673 22.675,8.227 4.594,1.713 c 6.29,2.34 13.022,4.934 19.607,8.01 6.764,3.184 12.403,6.438 17.26,9.963 7.476,5.423 13.131,11.543 17.307,18.709 2.657,4.555 4.733,9.622 6.189,15.068 1.828,6.84 2.758,14.572 2.712,22.985 z"
   style="fill:#2a7edf;fill-opacity:1;stroke:none;stroke-opacity:1"
   id="path134" />
	<polygon
   class="st0"
   points="286.902,74.2 286.902,55.894 265.157,55.894 265.157,34.14 246.843,34.14 246.843,55.894 225.098,55.894 225.098,74.2 246.843,74.2 246.843,95.945 265.157,95.945 265.157,74.2 "
   style="fill:#2a7edf;fill-opacity:1;stroke:none;stroke-opacity:1"
   id="polygon136" />
	<path
   class="st0"
   d="m 264.87,431.23 c 0,-2.92 -2.37,-5.283 -5.283,-5.283 -2.913,0 -5.275,2.363 -5.275,5.283 0,2.921 2.362,5.284 5.275,5.284 2.912,0 5.283,-2.363 5.283,-5.284 z"
   style="fill:#2a7edf;fill-opacity:1;stroke:none;stroke-opacity:1"
   id="path138" />
</g><rect
       style="fill:none;fill-opacity:1;stroke:none;stroke-width:0.536192;stroke-linecap:round;stroke-linejoin:round;stroke-opacity:1;paint-order:stroke fill markers"
       id="rect3036"
       width="25.92214"
       height="25.92214"
       x="65.238129"
       y="49.831005"
       inkscape:export-filename="../sp-navi-icon2.png"
       inkscape:export-xdpi="96"
       inkscape:export-ydpi="96" /></g><style
     type="text/css"
     id="style132">
	.st0{fill:#4B4B4B;}
</style></svg>
