<?xml version="1.0" encoding="UTF-8" standalone="no"?>
<!-- Created with Inkscape (http://www.inkscape.org/) -->

<svg
   width="210mm"
   height="297mm"
   viewBox="0 0 210 297"
   version="1.1"
   id="svg5"
   xml:space="preserve"
   inkscape:version="1.2.1 (9c6d41e4, 2022-07-14)"
   sodipodi:docname="描画.svg"
   xmlns:inkscape="http://www.inkscape.org/namespaces/inkscape"
   xmlns:sodipodi="http://sodipodi.sourceforge.net/DTD/sodipodi-0.dtd"
   xmlns="http://www.w3.org/2000/svg"
   xmlns:svg="http://www.w3.org/2000/svg"><sodipodi:namedview
     id="namedview7"
     pagecolor="#ffffff"
     bordercolor="#666666"
     borderopacity="1.0"
     inkscape:showpageshadow="2"
     inkscape:pageopacity="0.0"
     inkscape:pagecheckerboard="0"
     inkscape:deskcolor="#d1d1d1"
     inkscape:document-units="mm"
     showgrid="false"
     inkscape:zoom="3.512264"
     inkscape:cx="289.12975"
     inkscape:cy="164.99329"
     inkscape:window-width="1652"
     inkscape:window-height="1019"
     inkscape:window-x="364"
     inkscape:window-y="25"
     inkscape:window-maximized="0"
     inkscape:current-layer="layer1" /><defs
     id="defs2" /><g
     inkscape:label="Layer 1"
     inkscape:groupmode="layer"
     id="layer1"><g
       id="g3742"
       transform="matrix(0.5269693,0,0,0.5269693,27.221511,0.57360346)"><path
         style="fill:none;stroke:#02c7c6;stroke-width:0.79375;stroke-linecap:round;stroke-linejoin:round;stroke-dasharray:none;stroke-opacity:1"
         d="m 37.963042,58.722804 3.3229,3.3229 8.882366,-8.882367 -3.258997,-3.259 z"
         id="path421" /><path
         style="fill:none;stroke:#02c7c6;stroke-width:0.79375;stroke-linecap:round;stroke-linejoin:miter;stroke-dasharray:none;stroke-opacity:1"
         d="m 42.691784,61.160014 2.820621,2.820622"
         id="path977"
         sodipodi:nodetypes="cc" /><path
         style="fill:none;stroke:#02c7c6;stroke-width:0.79375;stroke-linecap:round;stroke-linejoin:round;stroke-dasharray:none;stroke-opacity:1"
         d="m 48.826368,55.153234 h 5.495565 l 8.493578,8.493577 2.497555,2.497554 c 0,0 1.150234,1.789252 -0.255609,2.556076 -1.405842,0.766823 -2.556076,-0.639019 -2.556076,-0.639019 0,0 0.895675,1.335398 0.255606,2.172665 -1.138741,1.489574 -2.883304,-0.39885 -2.939486,-0.511214 0,0 0.934531,1.412417 0.127802,2.300467 -0.970285,1.068092 -2.708114,-0.431133 -2.811685,-0.38341 4.9e-5,9.8e-5 0.928185,1.123871 0.0077,1.96223 -1.27333,1.159724 -2.557277,-0.658851 -2.563792,-0.684192"
         id="path979"
         sodipodi:nodetypes="ccccscscscsc" /><path
         style="fill:none;stroke:#fc8a8a;stroke-width:0.79375;stroke-linecap:round;stroke-linejoin:round;stroke-dasharray:none;stroke-opacity:1"
         d="M 59.40669,52.744825 68.621947,61.960083 72.1906,58.39143 62.99793,49.198758 Z"
         id="path1077" /><path
         style="fill:none;stroke:#fc8a8a;stroke-width:0.79375;stroke-linecap:butt;stroke-linejoin:miter;stroke-dasharray:none;stroke-opacity:1"
         d="m 60.711441,54.145183 -5.73695,0.361383 -4.28117,4.201771 c 0.111287,-0.185478 -0.667839,1.065172 -0.01025,1.986908 0.60398,0.846588 2.57485,0.767937 3.342788,0.04517 0.76794,-0.722765 2.665198,-2.845888 2.665198,-2.845888"
         id="path1079"
         sodipodi:nodetypes="cccssc" /><path
         style="fill:none;stroke:#fc8a8a;stroke-width:0.79375;stroke-linecap:round;stroke-linejoin:miter;stroke-dasharray:none;stroke-opacity:1"
         d="m 67.893923,61.372837 -3.749347,3.749344"
         id="path1081" /><g
         id="g3574"
         transform="translate(-15.347369,-13.226642)"><g
           id="g3266"
           inkscape:transform-center-x="2.4461102"
           inkscape:transform-center-y="3.6121203"
           transform="matrix(0,1,1,0,-16.172636,4.4017227)"
           style="stroke:#fc8a8a;stroke-opacity:1"><path
             style="fill:none;stroke:#fc8a8a;stroke-width:0.79375;stroke-linecap:round;stroke-linejoin:round;stroke-dasharray:none;stroke-opacity:1"
             d="m 74.130948,76.152038 c -0.560704,-0.546898 3.516713,-1.171642 1.883479,2.271588"
             id="path3258"
             sodipodi:nodetypes="cc" /><path
             style="fill:none;stroke:#fc8a8a;stroke-width:0.79375;stroke-linecap:round;stroke-linejoin:round;stroke-dasharray:none;stroke-opacity:1"
             d="m 76.34673,78.257476 c -0.560704,-0.546898 3.460904,-1.283259 1.82767,2.159971"
             id="path3260"
             sodipodi:nodetypes="cc" /><path
             style="fill:none;stroke:#fc8a8a;stroke-width:0.79375;stroke-linecap:round;stroke-linejoin:round;stroke-dasharray:none;stroke-opacity:1"
             d="m 78.506703,80.417449 c -0.560704,-0.546898 3.460904,-1.283259 1.82767,2.159971"
             id="path3262"
             sodipodi:nodetypes="cc" /><path
             style="fill:none;stroke:#fc8a8a;stroke-width:0.79375;stroke-linecap:round;stroke-linejoin:round;stroke-dasharray:none;stroke-opacity:1"
             d="m 80.500524,82.577422 c -0.560704,-0.546898 3.460904,-1.283259 1.82767,2.159971"
             id="path3264"
             sodipodi:nodetypes="cc" /></g><g
           id="g3559"><g
             id="g3256"
             style="stroke:#fc8a8a;stroke-opacity:1"
             transform="translate(-11.887464,0.11654376)"><path
               style="fill:none;stroke:#fc8a8a;stroke-width:0.79375;stroke-linecap:round;stroke-linejoin:round;stroke-dasharray:none;stroke-opacity:1"
               d="m 74.186757,76.263655 c -0.560704,-0.546898 3.460904,-1.283259 1.82767,2.159971"
               id="path3243"
               sodipodi:nodetypes="cc" /><path
               style="fill:none;stroke:#fc8a8a;stroke-width:0.79375;stroke-linecap:round;stroke-linejoin:round;stroke-dasharray:none;stroke-opacity:1"
               d="m 76.34673,78.257476 c -0.560704,-0.546898 3.460904,-1.283259 1.82767,2.159971"
               id="path3245"
               sodipodi:nodetypes="cc" /><path
               style="fill:none;stroke:#fc8a8a;stroke-width:0.79375;stroke-linecap:round;stroke-linejoin:round;stroke-dasharray:none;stroke-opacity:1"
               d="m 78.506703,80.417449 c -0.560704,-0.546898 3.460904,-1.283259 1.82767,2.159971"
               id="path3247"
               sodipodi:nodetypes="cc" /><path
               style="fill:none;stroke:#fc8a8a;stroke-width:0.79375;stroke-linecap:round;stroke-linejoin:round;stroke-dasharray:none;stroke-opacity:1"
               d="m 80.500524,82.577422 c -0.560704,-0.546898 3.460904,-1.283259 1.82767,2.159971"
               id="path3249"
               sodipodi:nodetypes="cc" /></g><path
             style="fill:none;stroke:#fc8a8a;stroke-width:0.8449;stroke-linecap:round;stroke-linejoin:round;stroke-dasharray:none;stroke-opacity:1"
             d="m 62.563768,76.158626 0.03451,-0.09943 c -0.960768,0.430748 -2.353714,1.732817 -2.867397,2.764892"
             id="path3268"
             sodipodi:nodetypes="ccc" /><path
             style="fill:none;stroke:#fc8a8a;stroke-width:0.79375;stroke-linecap:round;stroke-linejoin:round;stroke-dasharray:none;stroke-opacity:1"
             d="m 70.39243,84.843857 c -0.476231,1.154004 -1.131328,1.413677 -1.748155,1.864698"
             id="path3270"
             sodipodi:nodetypes="cc" /></g></g></g><rect
       style="fill:none;fill-opacity:1;stroke:none;stroke-width:0.432592;stroke-linecap:round;stroke-linejoin:round;stroke-dasharray:none;stroke-opacity:1;paint-order:stroke fill markers"
       id="rect3720"
       width="19.411158"
       height="19.411158"
       x="46.539726"
       y="23.325964"
       inkscape:export-filename="hand.png"
       inkscape:export-xdpi="96"
       inkscape:export-ydpi="96" /></g></svg>
