<?xml version="1.0" encoding="UTF-8" standalone="no"?>
<!-- Created with Inkscape (http://www.inkscape.org/) -->

<svg
   width="210mm"
   height="297mm"
   viewBox="0 0 210 297"
   version="1.1"
   id="svg5"
   xml:space="preserve"
   inkscape:export-filename="bed.png"
   inkscape:export-xdpi="96"
   inkscape:export-ydpi="96"
   inkscape:version="1.2.1 (9c6d41e4, 2022-07-14)"
   sodipodi:docname="bed.svg"
   xmlns:inkscape="http://www.inkscape.org/namespaces/inkscape"
   xmlns:sodipodi="http://sodipodi.sourceforge.net/DTD/sodipodi-0.dtd"
   xmlns="http://www.w3.org/2000/svg"
   xmlns:svg="http://www.w3.org/2000/svg"><sodipodi:namedview
     id="namedview7"
     pagecolor="#ffffff"
     bordercolor="#666666"
     borderopacity="1.0"
     inkscape:showpageshadow="2"
     inkscape:pageopacity="0.0"
     inkscape:pagecheckerboard="0"
     inkscape:deskcolor="#d1d1d1"
     inkscape:document-units="mm"
     showgrid="false"
     inkscape:zoom="1.1078981"
     inkscape:cx="264.91606"
     inkscape:cy="406.62585"
     inkscape:window-width="1652"
     inkscape:window-height="1019"
     inkscape:window-x="405"
     inkscape:window-y="25"
     inkscape:window-maximized="0"
     inkscape:current-layer="layer1" /><defs
     id="defs2" /><g
     inkscape:label="Layer 1"
     inkscape:groupmode="layer"
     id="layer1"><path
       id="rect6302"
       style="fill:none;fill-opacity:1;stroke:#a8e4e3;stroke-width:0.79375;stroke-linecap:round;stroke-linejoin:round;stroke-dasharray:none;stroke-opacity:1;paint-order:stroke fill markers"
       d="m 26.54602,194.57131 c -0.25499,0 -0.460236,0.20448 -0.460236,0.45842 v 7.61685 c 0,0.25395 0.205246,0.45842 0.460236,0.45842 h 0.601893 c 0.25499,0 0.460284,-0.20447 0.460284,-0.45842 v -1.72823 h 10.053394 v 1.7619 c 0,0.25386 0.205188,0.45827 0.460085,0.45827 h 0.673073 c 0.254897,0 0.460085,-0.20441 0.460085,-0.45827 v -3.01531 c 0,-0.25386 -0.205188,-0.45827 -0.460085,-0.45827 h -0.673073 c -0.01438,0 -0.02856,7.7e-4 -0.04259,0.002 H 27.608197 v -4.17899 c 0,-0.25394 -0.205294,-0.45842 -0.460284,-0.45842 z" /><ellipse
       style="fill:none;fill-opacity:1;stroke:#ffcdcc;stroke-width:0.79375;stroke-linecap:round;stroke-linejoin:round;stroke-dasharray:none;stroke-opacity:1;paint-order:stroke fill markers"
       id="path7770"
       cx="29.828295"
       cy="197.05977"
       rx="1.2434615"
       ry="1.2384613" /><rect
       style="fill:none;fill-opacity:1;stroke:#a8e4e3;stroke-width:0.79375;stroke-linecap:round;stroke-linejoin:round;stroke-dasharray:none;stroke-opacity:1;paint-order:stroke fill markers"
       id="rect7778"
       width="7.0267148"
       height="2.2026823"
       x="32.117496"
       y="195.95844"
       rx="0.96983296"
       ry="0.5461008" /></g><style
     type="text/css"
     id="style9">
	.st0{fill:#4B4B4B;}
</style></svg>
